<?xml version="1.0" encoding="UTF-8" standalone="no"?>
<!-- Created with Inkscape (http://www.inkscape.org/) -->

<svg
   width="64"
   height="64"
   viewBox="0 0 16.933333 16.933333"
   version="1.1"
   id="svg5"
   inkscape:version="1.1.2 (b8e25be833, 2022-02-05)"
   sodipodi:docname="changeOwner.svg"
   inkscape:export-filename="changeOwner.png"
   inkscape:export-xdpi="72"
   inkscape:export-ydpi="72"
   xmlns:inkscape="http://www.inkscape.org/namespaces/inkscape"
   xmlns:sodipodi="http://sodipodi.sourceforge.net/DTD/sodipodi-0.dtd"
   xmlns="http://www.w3.org/2000/svg"
   xmlns:svg="http://www.w3.org/2000/svg">
  <sodipodi:namedview
     id="namedview7"
     pagecolor="#ffffff"
     bordercolor="#666666"
     borderopacity="1.0"
     inkscape:pageshadow="2"
     inkscape:pageopacity="0.0"
     inkscape:pagecheckerboard="0"
     inkscape:document-units="px"
     showgrid="true"
     units="px"
     inkscape:zoom="11.859035"
     inkscape:cx="19.310172"
     inkscape:cy="32.043079"
     inkscape:window-width="1920"
     inkscape:window-height="1017"
     inkscape:window-x="-8"
     inkscape:window-y="-8"
     inkscape:window-maximized="1"
     inkscape:current-layer="layer1"
     inkscape:snap-smooth-nodes="true"
     width="64px">
    <inkscape:grid
       type="xygrid"
       id="grid9"
       empspacing="4"
       spacingx="0.52916666"
       spacingy="0.52916666" />
  </sodipodi:namedview>
  <defs
     id="defs2">
    <inkscape:path-effect
       effect="fillet_chamfer"
       id="path-effect2131"
       is_visible="true"
       lpeversion="1"
       satellites_param="F,0,0,1,0,1,0,1 @ F,0,0,1,0,1,0,1 @ F,0,0,1,0,1,0,1 @ F,0,0,1,0,1,0,1 @ F,0,0,1,0,1,0,1 @ F,0,0,1,0,1,0,1 @ F,0,0,1,0,1,0,1"
       unit="px"
       method="auto"
       mode="F"
       radius="1"
       chamfer_steps="1"
       flexible="false"
       use_knot_distance="true"
       apply_no_radius="true"
       apply_with_radius="true"
       only_selected="false"
       hide_knots="false" />
    <marker
       style="overflow:visible"
       id="Arrow1Mend"
       refX="0"
       refY="0"
       orient="auto"
       inkscape:stockid="Arrow1Mend"
       inkscape:isstock="true">
      <path
         transform="matrix(-0.4,0,0,-0.4,-4,0)"
         style="fill:context-stroke;fill-rule:evenodd;stroke:context-stroke;stroke-width:1pt"
         d="M 0,0 5,-5 -12.5,0 5,5 Z"
         id="path8467" />
    </marker>
    <marker
       style="overflow:visible"
       id="marker8736"
       refX="0"
       refY="0"
       orient="auto"
       inkscape:stockid="Arrow1Mstart"
       inkscape:isstock="true">
      <path
         transform="matrix(0.4,0,0,0.4,4,0)"
         style="fill:context-stroke;fill-rule:evenodd;stroke:context-stroke;stroke-width:1pt"
         d="M 0,0 5,-5 -12.5,0 5,5 Z"
         id="path8734" />
    </marker>
    <marker
       style="overflow:visible"
       id="Arrow1Mstart"
       refX="0"
       refY="0"
       orient="auto"
       inkscape:stockid="Arrow1Mstart"
       inkscape:isstock="true">
      <path
         transform="matrix(0.4,0,0,0.4,4,0)"
         style="fill:context-stroke;fill-rule:evenodd;stroke:context-stroke;stroke-width:1pt"
         d="M 0,0 5,-5 -12.5,0 5,5 Z"
         id="path8464" />
    </marker>
    <marker
       style="overflow:visible"
       id="Arrow1Lstart"
       refX="0"
       refY="0"
       orient="auto"
       inkscape:stockid="Arrow1Lstart"
       inkscape:isstock="true">
      <path
         transform="matrix(0.8,0,0,0.8,10,0)"
         style="fill:context-stroke;fill-rule:evenodd;stroke:context-stroke;stroke-width:1pt"
         d="M 0,0 5,-5 -12.5,0 5,5 Z"
         id="path8458" />
    </marker>
  </defs>
  <g
     inkscape:label="レイヤー 1"
     inkscape:groupmode="layer"
     id="layer1">
    <path
       id="path8582"
       style="font-variation-settings:normal;opacity:1;vector-effect:none;fill:#c1ffc1;fill-opacity:1;stroke:#000000;stroke-width:0.418924;stroke-linecap:butt;stroke-linejoin:miter;stroke-miterlimit:4;stroke-dasharray:none;stroke-dashoffset:0;stroke-opacity:1;-inkscape-stroke:none;stop-color:#000000;stop-opacity:1"
       d="M 6.5263888,5.1152777 A 3.3513886,3.3513886 0 0 0 3.175,8.4666666 3.3513886,3.3513886 0 0 0 4.7615095,11.31322 c -0.5310703,0.935444 -3.262204,1.045935 -3.262204,2.18053 v 1.675694 H 11.553472 V 13.49375 c 1e-6,-1.134595 -2.7311336,-1.245086 -3.2622039,-2.18053 A 3.3513886,3.3513886 0 0 0 9.8777779,8.4666666 3.3513886,3.3513886 0 0 0 6.5263888,5.1152777 Z" />
    <path
       id="path15175"
       style="font-variation-settings:normal;opacity:1;vector-effect:none;fill:#c1ffc1;fill-opacity:1;stroke:#000000;stroke-width:0.418923;stroke-linecap:butt;stroke-linejoin:miter;stroke-miterlimit:4;stroke-dasharray:none;stroke-dashoffset:0;stroke-opacity:1;-inkscape-stroke:none;stop-color:#000000;stop-opacity:1"
       d="M 10.318922,2.8223944 A 3.3513887,3.3513887 0 0 0 7.6374321,4.1695989 c 0.7622072,0.1994702 1.4728952,0.5985301 2.030367,1.1560019 0.8223069,0.8223073 1.3007559,1.9774588 1.3006959,3.1403766 -6.47e-4,0.9697572 -0.429178,1.8519676 -1.015442,2.6230956 0.185764,0.07282 0.339648,0.13779 0.556555,0.220658 0.394401,0.150679 0.815784,0.310706 1.232483,0.601514 0.28892,0.201633 0.610021,0.53791 0.779797,0.965316 h 2.824117 V 11.200694 C 15.346006,10.0661 12.614742,9.9553929 12.083672,9.0199487 A 3.3513887,3.3513887 0 0 0 13.670139,6.173611 3.3513887,3.3513887 0 0 0 10.318922,2.8223944 Z" />
    <path
       style="fill:#c1ffc1;stroke:#000000;stroke-width:0.418924;stroke-linecap:butt;stroke-linejoin:miter;stroke-opacity:1;font-variation-settings:normal;opacity:1;vector-effect:none;fill-opacity:1;stroke-miterlimit:4;stroke-dasharray:none;stroke-dashoffset:0;-inkscape-stroke:none;stop-color:#000000;stop-opacity:1"
       d="m 2.1166666,6.8791666 c 0,0 -1.0583333,-1.8974787 -1.0583333,-2.6458333 0,-1.0583333 2.9044221,-2.2568209 4.2333333,-2.1166667 L 5.6423477,1.0869341 7.4083332,3.175 4.829432,4.4724608 5.0908703,3.398107 c 0,0 -1.0457531,0.00973 -2.22822,0.6567407 C 1.8246275,4.6228224 2.1166666,6.8791666 2.1166666,6.8791666 Z"
       id="path15366"
       sodipodi:nodetypes="cscccccsc" />
  </g>
</svg>
